<svg width="34" height="34" viewBox="0 0 34 34" fill="none" xmlns="http://www.w3.org/2000/svg">
<g clip-path="url(#clip0_211_2072)">
<path d="M30.0803 8.50296C30.0803 8.82732 30.3465 9.09027 30.6749 9.09027H31.2694C31.5978 9.09027 31.864 8.82732 31.864 8.50296C31.864 8.1786 31.5978 7.91565 31.2694 7.91565H30.6749C30.3465 7.91565 30.0803 8.1786 30.0803 8.50296Z" fill="#212326"/>
<path d="M12.8381 26.7095H15.7264L14.8856 25.8789C14.6626 25.6587 14.3601 25.5349 14.0448 25.5349H12.8381C8.24101 25.5349 4.51431 21.8537 4.51431 17.3126C4.51431 12.7715 8.24101 9.09027 12.8381 9.09027H22.3511C26.9482 9.09027 30.6749 12.7715 30.6749 17.3126C30.6749 21.8537 26.9482 25.5349 22.3511 25.5349H18.7925C18.3194 25.5349 17.8657 25.3493 17.5312 25.0189L16.5462 24.0458C15.9886 23.4951 15.2325 23.1857 14.444 23.1857H12.8381C9.55446 23.1857 6.89255 20.5562 6.89255 17.3126C6.89255 14.069 9.55446 11.4395 12.8381 11.4395H22.3511C25.6348 11.4395 28.2967 14.069 28.2967 17.3126C28.2967 20.5562 25.6348 23.1857 22.3511 23.1857H20.0661C19.5931 23.1857 19.1394 23 18.8049 22.6696L17.8197 21.6965C17.2622 21.1458 16.5061 20.8364 15.7177 20.8364H12.8381C10.868 20.8364 9.27079 19.2587 9.27079 17.3126C9.27079 15.3664 10.868 13.7887 12.8381 13.7887H22.3511C24.3213 13.7887 25.9185 15.3664 25.9185 17.3126C25.9185 19.235 24.36 20.7979 22.423 20.8357L22.4226 20.8364H21.5525C21.0795 20.8364 20.6258 20.6508 20.2913 20.3204L19.3061 19.3473C18.8487 18.8954 18.2575 18.606 17.6245 18.5167L17.5946 18.4872H12.8381C12.1814 18.4872 11.649 17.9613 11.649 17.3126C11.649 16.6639 12.1814 16.138 12.8381 16.138H22.3511C23.0078 16.138 23.5402 16.6639 23.5402 17.3126C23.5402 17.9613 23.0078 18.4872 22.3511 18.4872H19.9729L20.8137 19.3178C21.0367 19.5381 21.3392 19.6618 21.6545 19.6618H22.3511C23.6645 19.6618 24.7293 18.61 24.7293 17.3126C24.7293 16.0152 23.6645 14.9634 22.3511 14.9634H12.8381C11.5247 14.9634 10.4599 16.0152 10.4599 17.3126C10.4599 18.61 11.5247 19.6618 12.8381 19.6618H17.2041C17.6771 19.6618 18.1308 19.8475 18.4653 20.1779L19.4505 21.151C20.008 21.7017 20.7641 22.0111 21.5525 22.0111H22.6484V22.002C25.1368 21.8505 27.1076 19.8088 27.1076 17.3126C27.1076 14.7177 24.978 12.6141 22.3511 12.6141H12.8381C10.2112 12.6141 8.08167 14.7177 8.08167 17.3126C8.08167 19.9075 10.2112 22.0111 12.8381 22.0111H15.7177C16.1907 22.0111 16.6444 22.1967 16.9789 22.5271L17.9641 23.5002C18.5216 24.0509 19.2777 24.3603 20.0661 24.3603H22.3511C26.2915 24.3603 29.4858 21.2049 29.4858 17.3126C29.4858 13.4202 26.2915 10.2649 22.3511 10.2649H12.8381C8.89774 10.2649 5.70343 13.4202 5.70343 17.3126C5.70343 21.2049 8.89774 24.3603 12.8381 24.3603H14.444C14.9171 24.3603 15.3708 24.5459 15.7053 24.8763L16.6904 25.8494C17.2479 26.4001 18.0041 26.7095 18.7925 26.7095H22.3511C27.605 26.7095 31.864 22.5024 31.864 17.3126C31.864 12.1228 27.605 7.91565 22.3511 7.91565L12.8381 7.91565C7.58429 7.91565 3.32519 12.1228 3.3252 17.3126C3.3252 22.5024 7.58429 26.7095 12.8381 26.7095Z" fill="#212326"/>
</g>
<defs>
<clipPath id="clip0_211_2072">
<rect width="28.5388" height="18.7939" fill="white" transform="translate(3.3252 7.91565)"/>
</clipPath>
</defs>
</svg>
