<svg width="34" height="34" viewBox="0 0 34 34" fill="none" xmlns="http://www.w3.org/2000/svg">
<g clip-path="url(#clip0_211_2046)">
<path fill-rule="evenodd" clip-rule="evenodd" d="M9.97901 3.14978C13.8233 3.14978 16.9397 6.26619 16.9397 10.1105V3.14978H23.9004C27.7446 3.14978 30.8611 6.26619 30.8611 10.1105C30.8611 13.9547 27.7446 17.0712 23.9004 17.0712C27.7446 17.0712 30.8611 20.1876 30.8611 24.0319C30.8611 25.9407 30.0927 27.6701 28.8484 28.9276L28.8224 28.9538L28.7993 28.9768C27.5415 30.2229 25.8108 30.9926 23.9004 30.9926C22.003 30.9926 20.2829 30.2334 19.0272 29.0021C19.0109 28.9861 18.9946 28.97 18.9784 28.9538C18.9632 28.9386 18.948 28.9233 18.9329 28.9079C17.7001 27.6521 16.9397 25.9307 16.9397 24.0319C16.9397 27.8761 13.8233 30.9926 9.97901 30.9926C6.13472 30.9926 3.01831 27.8761 3.01831 24.0319V17.0712H9.97901C6.13472 17.0712 3.01831 13.9547 3.01831 10.1105C3.01831 6.26619 6.13472 3.14978 9.97901 3.14978ZM15.5476 10.1105C15.5476 13.1859 13.0544 15.679 9.97901 15.679V4.54192C13.0544 4.54192 15.5476 7.03505 15.5476 10.1105ZM29.469 24.0319C29.469 20.9564 26.9758 18.4633 23.9004 18.4633C20.825 18.4633 18.3318 20.9564 18.3318 24.0319H29.469ZM4.41045 18.4633V24.0319C4.41045 27.1073 6.90358 29.6004 9.97901 29.6004C13.0544 29.6004 15.5476 27.1073 15.5476 24.0319V18.4633H4.41045ZM18.3318 15.679V4.54192H23.9004C26.9758 4.54192 29.469 7.03505 29.469 10.1105C29.469 13.1859 26.9758 15.679 23.9004 15.679H18.3318Z" fill="#263238"/>
</g>
<defs>
<clipPath id="clip0_211_2046">
<rect width="27.8428" height="27.8428" fill="white" transform="translate(3.01831 3.14978)"/>
</clipPath>
</defs>
</svg>
