<svg width="34" height="34" viewBox="0 0 34 34" fill="none" xmlns="http://www.w3.org/2000/svg">
<g clip-path="url(#clip0_211_2056)">
<path d="M31.7852 9.7008C31.7852 9.72434 31.7852 9.75376 31.779 9.77141C31.7484 10.0009 31.7484 10.2304 31.7667 10.4657C31.779 10.5246 31.7913 10.5834 31.8403 10.6305C31.92 10.7188 32.0426 10.7011 32.0917 10.5952C32.1162 10.5422 32.1162 10.4893 32.1039 10.4363C32.0426 10.2127 32.0304 9.97736 32.0243 9.74787C32.0243 9.73611 32.0243 9.71845 32.0243 9.7008C32.0917 9.69492 32.153 9.68903 32.2082 9.68903C32.2511 9.68315 32.2879 9.67726 32.3186 9.65961C32.4105 9.61254 32.4105 9.51251 32.3124 9.46543C32.2756 9.44778 32.2266 9.44189 32.1837 9.44189C32.0304 9.44778 31.8771 9.44778 31.7238 9.44778C31.6687 9.44778 31.6135 9.45367 31.5583 9.45955C31.5276 9.46543 31.4909 9.46543 31.4664 9.48309C31.4234 9.50074 31.3989 9.53016 31.3989 9.57135C31.405 9.61254 31.4234 9.63607 31.4664 9.65373C31.4909 9.67138 31.5215 9.67726 31.5522 9.67726C31.6257 9.68315 31.7055 9.69492 31.7852 9.7008ZM33.4711 9.97147C33.4711 9.97736 33.4772 9.98324 33.4772 9.98324C33.5018 10.1421 33.5263 10.2951 33.5447 10.4481C33.5508 10.501 33.557 10.5481 33.5937 10.5893C33.6734 10.6893 33.7961 10.6776 33.8512 10.5717C33.8758 10.5187 33.8819 10.4657 33.8696 10.4069C33.8328 10.2304 33.8144 10.0539 33.7777 9.88321C33.7531 9.77729 33.7225 9.67726 33.6918 9.58312C33.6734 9.52428 33.6305 9.48308 33.557 9.4772C33.4834 9.46543 33.4282 9.50074 33.3975 9.5537C33.3608 9.60077 33.3301 9.64784 33.3056 9.7008C33.2627 9.79495 33.2259 9.8891 33.1769 9.97736C33.1707 10.0009 33.1646 10.0185 33.1523 10.0362C33.1462 10.0244 33.1401 10.0185 33.1401 10.0185C33.0603 9.87144 32.9868 9.72434 32.9071 9.58312C32.8948 9.57135 32.8887 9.55958 32.8826 9.54781C32.8458 9.49486 32.8029 9.46543 32.7354 9.46543C32.6741 9.47132 32.625 9.50662 32.5944 9.55958C32.5821 9.58312 32.5821 9.60077 32.576 9.62431C32.5515 9.8126 32.5208 10.0009 32.4963 10.1892C32.484 10.2951 32.4779 10.401 32.4779 10.5069C32.4718 10.5305 32.4779 10.5599 32.4902 10.5834C32.5025 10.6305 32.5392 10.6599 32.5883 10.6658C32.6496 10.6717 32.6925 10.654 32.7109 10.607C32.7293 10.5717 32.7354 10.5422 32.7416 10.5128C32.7661 10.4069 32.7845 10.3069 32.8029 10.2068C32.8151 10.148 32.8212 10.1009 32.8397 10.0362C32.8519 10.0597 32.8641 10.0774 32.8764 10.095C32.9316 10.1657 32.9868 10.2363 33.0542 10.2951C33.1217 10.3422 33.1769 10.3363 33.232 10.2833C33.2443 10.2716 33.2504 10.2657 33.2627 10.2539C33.3179 10.1715 33.3853 10.0892 33.4405 10.0068C33.4527 9.99501 33.4589 9.98324 33.4711 9.97147Z" fill="#3A3B7B"/>
<path d="M19.3447 9.81635C19.3021 9.92817 19.294 10.0087 19.3136 10.0757C19.3354 10.1668 19.3918 10.1966 19.4683 10.1734C20.1884 10.0025 21.7675 10.4876 22.3521 10.6228C22.49 10.6512 22.6022 10.4804 22.5081 10.3272C22.3708 10.1789 20.7924 9.54388 20.1902 9.50926C19.9541 9.49645 19.5321 9.43835 19.3447 9.81635Z" fill="#3A3B7B"/>
<path d="M25.516 7.76071C25.5928 7.80323 25.6357 7.84378 25.6568 7.8891C25.6884 7.94853 25.6717 7.98966 25.6187 8.01064C25.1427 8.23362 24.5093 9.19356 24.2536 9.52463C24.1917 9.60079 24.0487 9.55653 24.0271 9.43129C24.0315 9.28968 24.593 8.24793 24.9064 7.96419C25.0295 7.85341 25.233 7.63605 25.516 7.76071Z" fill="#3A3B7B"/>
<path d="M21.7255 7.2882C21.8177 7.22151 21.9135 7.19814 21.9624 7.24148C22.6806 7.83098 23.0615 8.76451 23.2973 9.61913C23.3062 9.63904 23.3067 9.66761 23.2996 9.69742C23.2967 9.72289 23.2773 9.7498 23.2465 9.77063C23.2136 9.79362 23.1853 9.80062 23.1719 9.78081C22.8572 9.3699 21.0594 7.77112 21.7255 7.2882Z" fill="#3A3B7B"/>
<path d="M6.51682 17.5086C6.68895 17.3856 6.87608 17.2832 7.07411 17.2037C7.28129 17.1469 7.50211 17.1563 7.70322 17.2306C7.90428 17.3049 8.07473 17.44 8.18867 17.6156C8.2906 17.7906 8.33046 17.9928 8.30233 18.1915C8.27419 18.3902 8.17955 18.5748 8.03262 18.7174C7.91872 18.833 7.7894 18.9337 7.64812 19.0169C7.0184 19.4074 6.38307 19.7764 5.74777 20.1669C5.61777 20.2646 5.47987 20.3523 5.33537 20.429C5.11559 20.5342 4.86441 20.5624 4.62526 20.5086C4.38613 20.455 4.17407 20.3227 4.02575 20.1348C3.91488 20.0018 3.82131 19.8563 3.74711 19.7016C3.14524 18.4874 2.52108 17.2786 1.94151 16.043C1.67401 15.5082 1.45667 14.8931 1.2449 14.2994C1.15328 14.1269 1.13539 13.9269 1.19503 13.7419C1.25468 13.5569 1.38716 13.4016 1.56429 13.3089C1.74143 13.2163 1.94924 13.1936 2.14353 13.2457C2.33782 13.2978 2.50326 13.4206 2.60467 13.588C2.91638 13.9856 3.1923 14.4079 3.42946 14.8503C4.03132 15.92 4.60533 16.9898 5.18491 18.0274C5.21865 18.0848 5.25587 18.1401 5.29636 18.1932C5.73259 18.0172 6.14289 17.787 6.51682 17.5086Z" fill="#3A3B7B"/>
<path d="M12.7398 17.1355C11.3634 18.6812 9.05619 18.2908 7.89704 16.3011C7.07224 14.889 6.92736 12.557 8.72184 11.0861C9.10503 10.7782 9.56323 10.5684 10.0537 10.4764C10.6551 10.3936 11.2684 10.4954 11.8059 10.7673C12.3433 11.0392 12.7775 11.4671 13.0464 11.99C14.0272 13.7016 13.8879 15.8839 12.7398 17.1355ZM12.1826 13.5305C12.0363 13.1099 11.743 12.7508 11.3522 12.5142C11.1311 12.3629 10.8624 12.2894 10.5914 12.306C10.3204 12.3225 10.0636 12.4282 9.86426 12.6051C9.06736 13.2844 8.90014 14.8944 9.47971 15.8518C9.5536 16.0079 9.66208 16.1467 9.79766 16.2583C9.93324 16.37 10.0926 16.4519 10.2646 16.4982C10.4366 16.5446 10.617 16.5543 10.7934 16.5268C10.9697 16.4991 11.1376 16.4349 11.2854 16.3385C11.7173 16.0171 12.0343 15.5744 12.192 15.0722C12.3499 14.5699 12.3407 14.0329 12.1659 13.5358L12.1826 13.5305Z" fill="#3A3B7B"/>
<path d="M18.3572 14.2043C18.2163 14.2334 18.0707 14.2352 17.929 14.2094C17.7874 14.1837 17.6525 14.1311 17.5324 14.0546C17.4273 13.9969 17.3368 13.9176 17.2675 13.8223C17.1982 13.727 17.1517 13.6182 17.1315 13.5036C17.1112 13.389 17.1177 13.2716 17.1504 13.1597C17.1831 13.0478 17.2413 12.9442 17.3207 12.8565C17.459 12.6801 17.6554 12.5538 17.8779 12.4981C18.459 12.3363 19.0572 12.2376 19.6613 12.2039C19.794 12.1891 19.9284 12.1999 20.0567 12.2356C20.1851 12.2714 20.3046 12.3314 20.4085 12.4121C20.5123 12.4928 20.5983 12.5927 20.6614 12.7057C20.7244 12.8187 20.7633 12.9428 20.7758 13.0704C20.95 13.6976 20.969 14.3551 20.8315 14.9906C20.33 17.0445 18.6024 17.7505 16.663 17.0926C16.1187 16.9167 15.6413 16.589 15.2921 16.1513C14.8264 15.6241 14.4961 14.9994 14.328 14.3274C14.1918 13.7289 14.2067 13.1079 14.3716 12.5161C14.5364 11.9244 14.8463 11.379 15.2754 10.9256C15.6827 10.4328 16.2112 10.045 16.8135 9.79702C17.1941 9.59568 17.6395 9.53844 18.0619 9.63656C18.1577 9.66201 18.2446 9.7116 18.3138 9.78019C18.3829 9.84879 18.4316 9.93388 18.4549 10.0266C18.4783 10.1194 18.4753 10.2165 18.4463 10.3078C18.4174 10.3991 18.3635 10.4813 18.2903 10.5458C18.1512 10.6667 18 10.7742 17.8389 10.8668C17.3435 11.1696 16.9123 11.5598 16.5683 12.0167C16.3428 12.3124 16.1875 12.6519 16.1134 13.0114C16.0392 13.3708 16.048 13.7415 16.1392 14.0974C16.2656 14.5826 16.5461 15.0181 16.9417 15.3436C18.1677 16.4134 19.7615 15.381 19.4829 13.9209C19.0761 14.0172 18.7194 14.1188 18.3572 14.2043Z" fill="#3A3B7B"/>
<path d="M25.8472 17.2211C24.036 18.2908 21.974 17.2211 21.5226 14.9747C21.1938 13.3701 21.818 11.1236 24.0026 10.2678C24.4674 10.0896 24.9715 10.0271 25.4682 10.0859C26.065 10.1908 26.6125 10.4728 27.0334 10.8921C27.4543 11.3115 27.7275 11.847 27.8144 12.4233C28.1822 14.3328 27.3463 16.3707 25.8472 17.2211ZM26.4769 13.6214C26.4764 13.1771 26.3126 12.7471 26.0144 12.4073C25.855 12.1971 25.6245 12.0464 25.3623 11.9811C25.1001 11.9157 24.8224 11.9397 24.5765 12.0489C23.5957 12.4554 22.9047 13.9316 23.1555 15.0175C23.1747 15.1878 23.2323 15.3522 23.3245 15.4989C23.4167 15.6457 23.5412 15.7714 23.6894 15.8672C23.8374 15.9629 24.0055 16.0265 24.1819 16.0534C24.3582 16.0803 24.5386 16.0699 24.7103 16.023C25.2287 15.8492 25.6776 15.5243 25.9943 15.0938C26.3111 14.6632 26.4798 14.1485 26.4769 13.6214Z" fill="#3A3B7B"/>
<path d="M29.646 17.6704C29.6187 17.8661 29.5115 18.0434 29.3479 18.1633C29.1843 18.2832 28.9779 18.3358 28.7739 18.3095C28.5699 18.2833 28.3852 18.1803 28.2603 18.0233C28.1354 17.8664 28.0806 17.6682 28.108 17.4725C28.1353 17.2767 28.2426 17.0994 28.4061 16.9795C28.5697 16.8596 28.7761 16.807 28.9801 16.8333C29.1841 16.8595 29.3688 16.9624 29.4937 17.1194C29.6186 17.2764 29.6734 17.4746 29.646 17.6704ZM29.1612 10.455C29.2672 10.2996 29.4227 10.1813 29.6045 10.1177C29.7863 10.054 29.9846 10.0485 30.1699 10.1019C30.3583 10.1472 30.5247 10.2532 30.6414 10.4021C30.7581 10.5511 30.8179 10.734 30.8108 10.9203C30.7862 11.219 30.7397 11.5157 30.6715 11.8082C30.4876 12.7977 30.3092 13.7872 30.1142 14.766C30.025 15.1565 29.908 15.5309 29.7798 15.9267C29.7352 16.0504 29.6607 16.1622 29.5625 16.2529C29.5014 16.3212 29.4234 16.3736 29.3356 16.4052C29.2479 16.4368 29.1532 16.4467 29.0604 16.4339C28.9677 16.4211 28.8797 16.386 28.8048 16.332C28.7299 16.2779 28.6704 16.2066 28.6318 16.1246C28.5656 15.9775 28.5296 15.8194 28.5259 15.6592C28.5259 14.996 28.5259 14.3274 28.5705 13.6588C28.6463 12.7047 28.7953 11.7571 29.0163 10.824C29.0424 10.699 29.0914 10.5794 29.1612 10.471V10.455Z" fill="#3A3B7B"/>
<path fill-rule="evenodd" clip-rule="evenodd" d="M4.16219 21.9684C4.09639 22.1094 4.07834 22.2666 4.1105 22.4178C4.13189 22.6172 4.17887 22.8134 4.25038 23.0017C4.33966 23.2324 4.43955 23.4605 4.56273 23.7416C4.59106 23.8063 4.62066 23.8739 4.65164 23.9449C4.81775 24.3258 5.02617 24.8126 5.30418 25.517C5.38287 25.7171 5.45275 25.9189 5.52311 26.122C5.55154 26.2041 5.58006 26.2865 5.60926 26.369C5.71393 26.6624 5.89404 26.926 6.13276 27.135C6.23414 27.2498 6.3686 27.3335 6.51937 27.3753C6.67308 27.418 6.83656 27.4153 6.98864 27.3676C7.14072 27.3198 7.27429 27.2292 7.37202 27.1076C7.46783 26.9884 7.5248 26.8447 7.53588 26.6946C7.59803 26.4022 7.57682 26.099 7.47437 25.817C7.31178 25.3489 7.12656 24.8802 6.91298 24.4217L6.912 24.4197C6.56063 23.7023 6.20348 22.9899 5.82942 22.2773L5.82662 22.2723C5.71712 22.0866 5.57481 21.9206 5.40609 21.7818C5.29656 21.6579 5.14548 21.5743 4.97863 21.5455C4.80823 21.5161 4.63248 21.5457 4.48277 21.6292C4.34114 21.7068 4.22887 21.8256 4.16219 21.9684Z" fill="#3A3B7B"/>
<path fill-rule="evenodd" clip-rule="evenodd" d="M9.52871 20.2021C8.97778 20.0652 8.40242 20.0452 7.8427 20.1437C7.40918 20.1846 6.98281 20.2806 6.68673 20.4707C6.53615 20.5675 6.4144 20.6917 6.34668 20.8496C6.27859 21.0084 6.26989 21.19 6.3257 21.3923C6.42758 21.7629 6.55989 22.1232 6.69173 22.4824L6.71309 22.5406L6.71361 22.5418C7.11058 23.5853 7.51135 24.6252 7.91575 25.6615C7.96291 25.8248 8.0296 25.9824 8.11447 26.131L8.11606 26.1337C8.22818 26.3183 8.37199 26.4834 8.54141 26.6221C8.62614 26.6984 8.73092 26.7511 8.84454 26.7747C8.95928 26.7985 9.07859 26.7916 9.1895 26.7547C9.30045 26.7179 9.39869 26.6525 9.47356 26.5657C9.54722 26.4803 9.59545 26.3775 9.61316 26.268C9.68626 25.9706 9.66284 25.6589 9.546 25.3746C9.50955 25.279 9.48094 25.1812 9.4508 25.0783C9.44075 25.044 9.43056 25.0091 9.41981 24.9735C10.3455 24.6262 11.3305 24.1592 11.6768 23.0729C11.8125 22.6975 11.8238 22.2909 11.7092 21.9091C11.5945 21.5268 11.3592 21.1879 11.0357 20.9392C10.5954 20.591 10.081 20.3394 9.52871 20.2021ZM8.00161 21.5346C8.01983 21.5296 8.0382 21.5249 8.05662 21.5205C8.65928 21.4296 9.27587 21.5508 9.79286 21.8616C10.0207 22.0137 10.114 22.1827 10.1301 22.3453C10.1466 22.5127 10.0832 22.6941 9.95578 22.8684C9.71505 23.1978 9.27573 23.4615 8.87889 23.5106C8.58959 22.8712 8.29581 22.2059 8.00161 21.5346Z" fill="#3A3B7B"/>
<path d="M13.2016 19.0316C13.8577 18.7408 14.6704 18.6906 15.3064 18.895C15.4665 18.9398 15.6055 19.0367 15.6995 19.169C15.7928 19.3005 15.8359 19.4591 15.8215 19.6175C15.8206 19.7204 15.7943 19.8216 15.7448 19.9129C15.6944 20.0058 15.6215 20.0857 15.5321 20.1459C15.4427 20.2061 15.3396 20.2447 15.2314 20.2586C15.1232 20.2724 15.0131 20.261 14.9104 20.2254L14.9026 20.2227L14.8953 20.219C14.8427 20.1926 14.7869 20.1727 14.7292 20.1598L14.7256 20.159C14.2782 20.045 13.8562 20.2339 13.7021 20.4661C13.6286 20.5768 13.6195 20.6886 13.6807 20.7902C13.7463 20.8991 13.9071 21.0213 14.2325 21.1083C14.322 21.1319 14.4137 21.1547 14.5068 21.1778C14.7641 21.2418 15.0316 21.3082 15.2901 21.4003L15.2911 21.4006C16.4841 21.8363 16.9283 22.7385 16.7763 23.5872C16.6258 24.4264 15.8956 25.1902 14.7974 25.3703C14.3978 25.4554 13.982 25.4388 13.591 25.3223C13.1991 25.2055 12.8458 24.9923 12.5663 24.7038L12.559 24.6963C12.4707 24.5876 12.4114 24.4599 12.3851 24.3244C12.3609 24.2022 12.3736 24.0758 12.4218 23.9603C12.4696 23.8454 12.5506 23.746 12.655 23.6735C12.7654 23.5914 12.8984 23.5421 13.0376 23.5319C13.1764 23.5216 13.3152 23.5506 13.4371 23.6151C13.5588 23.6715 13.672 23.7435 13.7736 23.8291L13.7755 23.8307C13.9552 23.9884 14.1727 24.0295 14.3812 23.9915C14.5928 23.9528 14.7917 23.8327 14.9197 23.6732C15.0468 23.5148 15.0979 23.3266 15.0373 23.144C14.9764 22.9599 14.7931 22.7538 14.3905 22.5814C14.2852 22.5385 14.1761 22.5039 14.0626 22.4703C14.032 22.4612 14.0008 22.4521 13.9693 22.443C13.8854 22.4185 13.799 22.3933 13.7143 22.3656C13.656 22.3465 13.5982 22.3284 13.5409 22.3105C13.3842 22.2615 13.2316 22.2138 13.0846 22.1498C12.7648 22.0453 12.4885 21.8446 12.2968 21.5775C12.1044 21.3093 12.0075 20.9886 12.0207 20.6632C12.0217 19.8703 12.5421 19.324 13.2016 19.0316Z" fill="#3A3B7B"/>
<path d="M21.5196 18.9472C21.3923 18.8876 21.2517 18.8593 21.1102 18.8648C20.9688 18.8704 20.831 18.9097 20.7093 18.9792C20.5884 19.0482 20.4872 19.1448 20.4147 19.2605C20.3482 19.3579 20.3021 19.4668 20.2792 19.5811C20.2562 19.6954 20.2568 19.8129 20.2808 19.9269C20.3045 20.0734 20.3307 20.2159 20.3567 20.3564C20.3996 20.589 20.4414 20.8163 20.469 21.0481L20.47 21.0539C20.5328 21.4174 20.5656 21.785 20.5686 22.1534L20.5689 22.1587C20.5903 22.5565 20.4491 22.9466 20.1754 23.2462L20.1711 23.2515C20.082 23.361 19.963 23.4446 19.8272 23.4929C19.6915 23.5412 19.5445 23.5523 19.4026 23.525C19.2606 23.4976 19.1294 23.433 19.0236 23.3381C18.9178 23.2433 18.8415 23.1217 18.8034 22.9877C18.7221 22.7053 18.675 22.4147 18.663 22.1219L18.8019 19.9995C18.804 19.9718 18.8063 19.9433 18.8087 19.9146C18.814 19.8502 18.8194 19.7845 18.8217 19.7233C18.8249 19.6332 18.8221 19.5405 18.8003 19.4528C18.7779 19.3631 18.7353 19.2779 18.6598 19.2052C18.585 19.1333 18.484 19.0803 18.357 19.0442C18.1273 18.9804 17.9331 18.9824 17.7712 19.0483C17.6093 19.1143 17.4983 19.2367 17.4198 19.378C17.3419 19.5183 17.2919 19.6842 17.254 19.8505C17.2259 19.9739 17.2033 20.1034 17.1819 20.2266C17.1745 20.2691 17.1672 20.3108 17.1599 20.3513L17.1597 20.3525C17.0449 21.0286 17.0107 21.715 17.0578 22.3985C17.0666 22.7678 17.1469 23.1324 17.2946 23.4736C17.4612 23.9138 17.763 24.2953 18.1601 24.5676C18.558 24.8404 19.0329 24.9907 19.5219 24.9987C20.0108 25.0066 20.4908 24.8718 20.8981 24.6121C21.3048 24.3527 21.62 23.981 21.802 23.5461C22.0566 22.9922 22.1761 22.3897 22.1514 21.7847C22.1365 21.343 22.1114 20.8979 22.0865 20.455C22.0743 20.2378 22.0621 20.021 22.0511 19.8056C22.0456 19.5895 21.9714 19.3803 21.8384 19.2059C21.7561 19.0957 21.6465 19.0068 21.5196 18.9472Z" fill="#3A3B7B"/>
<path d="M26.0222 22.2752C26.0093 22.2909 25.9957 22.3072 25.9815 22.3241C25.878 21.7512 25.7821 21.1785 25.6861 20.6049C25.6516 20.3991 25.617 20.1924 25.5822 19.9863L25.5782 19.9633L25.5655 19.9435C25.5415 19.9061 25.5392 19.8694 25.5392 19.7912V19.7822L25.5377 19.7733C25.5117 19.6118 25.4356 19.4616 25.3194 19.3422C25.2035 19.2231 25.053 19.1403 24.8874 19.1043C24.7221 19.0652 24.5484 19.0738 24.3881 19.1291C24.2283 19.1843 24.0889 19.2835 23.9875 19.4143C23.9032 19.5146 23.8341 19.6259 23.7823 19.7448C23.6648 20.001 23.5462 20.2578 23.4273 20.5153L23.4252 20.5198C23.1284 21.1627 22.8296 21.8098 22.5395 22.4621L22.5386 22.4642C22.3605 22.8872 22.2134 23.3328 22.0669 23.7771C22.0376 23.8658 22.0084 23.9544 21.9789 24.0428C21.926 24.183 21.9029 24.332 21.9108 24.4808C21.9012 24.6141 21.9344 24.747 22.0061 24.8617C22.0792 24.9787 22.1887 25.0707 22.3191 25.1249C22.4574 25.1831 22.6119 25.1954 22.7584 25.16C22.9045 25.1246 23.0342 25.0437 23.1272 24.9299C23.2459 24.7898 23.348 24.6369 23.4313 24.475C23.6771 23.9924 23.912 23.504 24.1458 23.0177C24.2363 22.8296 24.3242 22.6611 24.4242 22.4777C24.4311 22.5003 24.4381 22.5224 24.4453 22.5445C24.5501 22.9874 24.7271 23.4117 24.9696 23.8017C25.0155 23.8844 25.0794 23.9566 25.157 24.0134C25.2355 24.071 25.3261 24.1113 25.4226 24.1318C25.519 24.1523 25.6189 24.1524 25.7154 24.1321C25.8117 24.1118 25.9026 24.0714 25.9811 24.0142L26.1366 23.9024L27.3435 22.9268L27.2721 23.3633C27.1742 23.9633 27.077 24.5584 26.9737 25.1535C26.9061 25.4173 26.9062 25.6929 26.974 25.9566C27.0033 26.105 27.0781 26.2416 27.1888 26.349C27.3004 26.4574 27.4433 26.5309 27.599 26.5603C27.7547 26.5896 27.9161 26.5734 28.062 26.5136C28.2059 26.4547 28.3282 26.3563 28.4138 26.2308C28.6128 25.9939 28.7366 25.707 28.7706 25.4043C28.8219 24.9769 28.8797 24.5437 28.9376 24.1106C29.0043 23.6114 29.071 23.1124 29.1273 22.6229L29.1275 22.6214C29.1817 22.0856 29.2079 21.5476 29.2061 21.0093C29.218 20.8392 29.1739 20.6697 29.0798 20.5249C28.9855 20.3795 28.8457 20.2665 28.6806 20.2019C28.5088 20.1269 28.3165 20.1069 28.1319 20.1448C27.9486 20.1824 27.7826 20.2752 27.6581 20.4095C27.4355 20.6071 27.2267 20.8186 27.0329 21.0425L27.0316 21.044C26.8202 21.2969 26.6101 21.5548 26.4014 21.811C26.2746 21.9668 26.148 22.1222 26.0222 22.2752Z" fill="#3A3B7B"/>
</g>
<defs>
<clipPath id="clip0_211_2056">
<rect width="32.7153" height="20.186" fill="white" transform="translate(1.1604 7.21948)"/>
</clipPath>
</defs>
</svg>
