<svg width="39" height="34" viewBox="0 0 39 34" fill="none" xmlns="http://www.w3.org/2000/svg">
<g clip-path="url(#clip0_211_2052)">
<path d="M38.5802 13.9503C38.5841 13.9212 38.5841 13.8919 38.5802 13.8629C38.5839 13.8392 38.5839 13.8151 38.5802 13.7914L38.2965 11.7501C38.2556 11.5058 38.1462 11.2776 37.9806 11.0908L37.9319 11.0352L37.8429 10.9478L32.9331 6.80164L33.0708 6.93668C32.9581 6.80451 32.8167 6.69879 32.6569 6.62731C32.497 6.55583 32.3228 6.5204 32.1472 6.52364H30.6564C30.414 6.51894 30.1771 6.5945 29.984 6.73811C29.7811 6.59536 29.5369 6.52019 29.2872 6.52364H27.7964C27.6009 6.52054 27.408 6.56811 27.2373 6.66156C27.0666 6.75501 26.9241 6.89102 26.8242 7.05582C26.6702 7.29119 26.6124 7.57479 26.6621 7.85011L26.8485 9.13685C26.725 9.06824 26.5853 9.03264 26.4434 9.03361H19.2246C18.9655 9.0352 18.7125 9.10962 18.4954 9.24805C18.2854 9.37691 18.1168 9.56141 18.0093 9.78022L17.4502 9.3116C17.2302 9.11201 16.9398 9.00383 16.64 9.00977H5.31348C5.05356 9.01441 4.79941 9.0856 4.57622 9.21629C4.27087 9.3915 4.0471 9.67639 3.95235 10.0106L0.355083 21.8058C0.287869 22.0001 0.281257 22.2097 0.336094 22.4078C0.390931 22.6058 0.504733 22.7834 0.662961 22.9178C0.704191 22.9521 0.747482 22.9839 0.792595 23.0131C0.792595 23.0131 0.719666 22.9654 0.679156 22.9257L5.58897 27.0799C5.79666 27.2673 6.06821 27.3721 6.3505 27.3737H17.7662C18.0269 27.3671 18.2812 27.2931 18.5035 27.1593C18.6292 27.0919 18.7416 27.0032 18.8357 26.8971L18.8762 26.8415L18.941 26.7621L18.9896 26.6748L19.5243 27.1275C19.729 27.3075 19.9947 27.4066 20.2697 27.4055H31.7097C31.9701 27.397 32.2239 27.3232 32.4469 27.1911C32.5698 27.1196 32.6816 27.0313 32.7792 26.9289L32.8196 26.8733L32.8844 26.7939C32.9189 26.7437 32.9488 26.6905 32.9735 26.635C33 26.5869 33.0217 26.5364 33.0384 26.4842L36.3197 15.7136V15.6183C36.3237 15.5813 36.3237 15.544 36.3197 15.5071V15.4356C36.3236 15.4119 36.3236 15.3878 36.3197 15.3641C36.3233 15.3139 36.3233 15.2634 36.3197 15.2132H37.3729C37.4646 15.2214 37.5568 15.2214 37.6484 15.2132H37.7213C37.7806 15.1958 37.8377 15.1718 37.8915 15.1417H37.9725L38.1183 15.0305L38.1831 14.9828L38.2965 14.8398V14.7922L38.3776 14.6572C38.3731 14.6309 38.3731 14.604 38.3776 14.5778C38.3733 14.5649 38.3733 14.5509 38.3776 14.538C38.3948 14.4915 38.4084 14.4436 38.4181 14.395C38.4143 14.3794 38.4143 14.363 38.4181 14.3474C38.4142 14.3237 38.4142 14.2996 38.4181 14.2759C38.4181 14.2759 38.5802 13.9661 38.5802 13.9503Z" fill="black"/>
<path d="M16.9722 9.9153C17.0152 9.95343 17.0453 10.0036 17.0583 10.059C17.0714 10.1143 17.0668 10.1723 17.0452 10.2251L13.456 22.0123C13.4108 22.141 13.3183 22.2486 13.1967 22.3142C13.0978 22.3791 12.9833 22.4174 12.8645 22.4254H1.45699C1.35957 22.4208 1.26727 22.3812 1.19772 22.3142C1.15635 22.2766 1.12731 22.2279 1.11432 22.1742C1.10133 22.1204 1.10499 22.0641 1.12481 22.0123L4.72208 10.2251C4.76352 10.0948 4.85308 9.98428 4.97323 9.9153C5.07382 9.85506 5.1878 9.81963 5.30542 9.81203H16.7129C16.8096 9.81295 16.9023 9.84987 16.9722 9.9153ZM11.0173 19.6374L13.1643 12.6H7.15268L5.01374 19.6374H11.0173ZM27.8612 10.0344C27.9002 10.0788 27.9488 10.1139 28.0035 10.1373C28.0583 10.1607 28.1176 10.1717 28.1772 10.1695H29.6599C29.7164 10.17 29.772 10.1564 29.8216 10.13C29.8713 10.1036 29.9132 10.0652 29.9435 10.0185C29.9698 9.98207 29.9884 9.94077 29.9981 9.8971C30.0079 9.85344 30.0085 9.80831 30.0001 9.76438L29.7085 7.66745C29.6807 7.5704 29.6309 7.48079 29.5627 7.40534C29.5237 7.36099 29.4751 7.32583 29.4204 7.30245C29.3657 7.27907 29.3063 7.26809 29.2467 7.27031H27.764C27.7076 7.26977 27.6519 7.28334 27.6023 7.30975C27.5527 7.33615 27.5107 7.37452 27.4805 7.42123C27.4237 7.53243 27.3995 7.60391 27.4237 7.66745L27.7235 9.76438C27.7389 9.86648 27.7872 9.9611 27.8612 10.0344ZM32.5685 7.65157C32.5407 7.55451 32.4908 7.4649 32.4227 7.38945C32.3854 7.34527 32.3382 7.31011 32.2848 7.2867C32.2314 7.26328 32.1732 7.25223 32.1148 7.25442H30.624C30.5685 7.25287 30.5136 7.26608 30.4651 7.29265C30.4166 7.31921 30.3763 7.35816 30.3486 7.40534C30.2947 7.4758 30.2713 7.56432 30.2838 7.65157L30.5835 9.74849C30.6023 9.84952 30.6501 9.94319 30.7213 10.0185C30.7609 10.062 30.8096 10.0966 30.8642 10.1199C30.9187 10.1432 30.9777 10.1547 31.0372 10.1536H32.528C32.5834 10.1543 32.638 10.1407 32.6863 10.1142C32.7347 10.0878 32.7751 10.0493 32.8035 10.0027C32.8317 9.96713 32.8513 9.92585 32.8612 9.88187C32.871 9.83789 32.8706 9.79232 32.8602 9.74849L32.5685 7.65157ZM26.5568 10.8287L26.411 9.79615H19.2246C19.1117 9.80225 19.0026 9.83791 18.9086 9.8994C18.8489 9.93131 18.797 9.97552 18.7564 10.029C18.7159 10.0825 18.6876 10.144 18.6737 10.2092L18.0741 12.179C18.0502 12.2282 18.042 12.2835 18.0506 12.3373C18.0594 12.3912 18.0845 12.4412 18.1227 12.4809C18.191 12.5438 18.2802 12.5805 18.3739 12.5841H27.1078L24.9608 19.6215H16.2511C16.1388 19.624 16.0295 19.657 15.9352 19.7168C15.8206 19.7882 15.7369 19.8985 15.7002 20.0266L15.0926 21.9965C15.0728 22.047 15.0675 22.1019 15.0775 22.1552C15.0876 22.2085 15.1124 22.2579 15.1493 22.2983C15.2155 22.3654 15.3053 22.4052 15.4004 22.4094H26.8404C26.9587 22.3995 27.0728 22.3613 27.1726 22.2983C27.2922 22.2324 27.382 22.1246 27.4237 21.9965L30.7131 11.2259H27.0106C26.9518 11.227 26.8935 11.2163 26.8391 11.1945C26.7848 11.1726 26.7356 11.14 26.6946 11.0988C26.6276 11.0267 26.5802 10.9393 26.5568 10.8446V10.8287Z" fill="white"/>
</g>
<defs>
<clipPath id="clip0_211_2052">
<rect width="38.2838" height="20.8821" fill="white" transform="translate(0.299316 6.52344)"/>
</clipPath>
</defs>
</svg>
