<svg width="37" height="34" viewBox="0 0 37 34" fill="none" xmlns="http://www.w3.org/2000/svg">
<g clip-path="url(#clip0_211_2076)">
<path d="M8.81726 10.0038C7.40373 10.0038 6.04811 10.5653 5.0486 11.5648L1.78662 14.8268C0.787105 15.8263 0.225586 17.1819 0.225586 18.5955C0.225586 21.539 2.61178 23.9252 5.5553 23.9252C6.96883 23.9252 8.32445 23.3636 9.32396 22.3641L11.5803 20.1078C11.5803 20.1077 11.5803 20.1078 11.5803 20.1078L18.1545 13.5336C18.6318 13.0562 19.2793 12.7881 19.9544 12.7881C21.0846 12.7881 22.0428 13.5247 22.375 14.544L24.4498 12.4692C23.5033 10.9868 21.8436 10.0038 19.9544 10.0038C18.5408 10.0038 17.1852 10.5653 16.1857 11.5648L7.35519 20.3954C6.87783 20.8727 6.23039 21.1409 5.5553 21.1409C4.14949 21.1409 3.00986 20.0013 3.00986 18.5955C3.00986 17.9204 3.27804 17.2729 3.7554 16.7956L7.01737 13.5336C7.49473 13.0562 8.14217 12.7881 8.81726 12.7881C9.94754 12.7881 10.9057 13.5247 11.2379 14.5441L13.3128 12.4693C12.3662 10.9868 10.7066 10.0038 8.81726 10.0038Z" fill="#394149"/>
<path d="M18.4924 20.3954C18.0151 20.8727 17.3676 21.1409 16.6925 21.1409C15.5624 21.1409 14.6043 20.4045 14.272 19.3853L12.1973 21.46C13.1438 22.9423 14.8034 23.9252 16.6925 23.9252C18.1061 23.9252 19.4617 23.3636 20.4612 22.3641L29.2917 13.5336C29.7691 13.0562 30.4165 12.7881 31.0916 12.7881C32.4974 12.7881 33.637 13.9277 33.637 15.3335C33.637 16.0086 33.3689 16.656 32.8915 17.1334L29.6295 20.3954C29.1522 20.8727 28.5047 21.1409 27.8296 21.1409C26.6995 21.1409 25.7413 20.4043 25.409 19.385L23.3343 21.4598C24.2808 22.9422 25.9404 23.9252 27.8296 23.9252C29.2432 23.9252 30.5988 23.3636 31.5983 22.3641L34.8603 19.1022C35.8598 18.1026 36.4213 16.747 36.4213 15.3335C36.4213 12.39 34.0351 10.0038 31.0916 10.0038C29.6781 10.0038 28.3225 10.5653 27.3229 11.5648L18.4924 20.3954Z" fill="#394149"/>
</g>
<defs>
<clipPath id="clip0_211_2076">
<rect width="36.1956" height="13.9214" fill="white" transform="translate(0.225586 10.0038)"/>
</clipPath>
</defs>
</svg>
