<svg width="34" height="34" viewBox="0 0 34 34" fill="none" xmlns="http://www.w3.org/2000/svg">
<g clip-path="url(#clip0_211_2049)">
<path fill-rule="evenodd" clip-rule="evenodd" d="M10.0458 10.0835L3.09497 16.9645C4.48526 18.3408 6.07345 19.5007 7.80502 20.4082C8.28364 21.665 9.03386 22.8437 10.0557 23.8552C13.9 27.6608 20.1328 27.6608 23.9771 23.8552C24.9989 22.8437 25.7491 21.665 26.2277 20.4081C27.9593 19.5007 29.5475 18.3408 30.9377 16.9645L23.9926 10.0891C23.9874 10.084 23.9823 10.0789 23.9771 10.0737C20.1328 6.26807 13.9 6.26807 10.0557 10.0737C10.0524 10.077 10.0491 10.0803 10.0458 10.0835ZM23.312 21.6496C21.2864 22.3263 19.16 22.6729 17.0164 22.6729C14.8727 22.6729 12.7464 22.3263 10.7208 21.6496C10.9403 21.9379 11.1826 22.2145 11.4478 22.477C14.5232 25.5216 19.5095 25.5216 22.5849 22.477C22.8501 22.2145 23.0925 21.9379 23.312 21.6496ZM11.5906 11.314C12.1128 11.6556 12.6682 11.9479 13.2492 12.1862C14.4435 12.6759 15.7236 12.928 17.0164 12.928C18.3091 12.928 19.5892 12.6759 20.7835 12.1862C21.3646 11.9479 21.9199 11.6556 22.4422 11.314C19.4051 8.45328 14.6276 8.45329 11.5906 11.314Z" fill="#3B4158"/>
</g>
<defs>
<clipPath id="clip0_211_2049">
<rect width="27.8428" height="19.4899" fill="white" transform="translate(3.09497 7.21948)"/>
</clipPath>
</defs>
</svg>
