<svg width="39" height="34" viewBox="0 0 39 34" fill="none" xmlns="http://www.w3.org/2000/svg">
<g clip-path="url(#clip0_211_2080)">
<path d="M38.8873 13.9503C38.8913 13.9212 38.8913 13.8919 38.8873 13.8629C38.8911 13.8392 38.8911 13.8151 38.8873 13.7914L38.6037 11.7501C38.5628 11.5058 38.4534 11.2776 38.2877 11.0908L38.2391 11.0352L38.15 10.9478L33.2402 6.80164L33.3779 6.93668C33.2653 6.80451 33.1238 6.69879 32.964 6.62731C32.8041 6.55583 32.63 6.5204 32.4543 6.52364H30.9635C30.7211 6.51894 30.4843 6.5945 30.2911 6.73811C30.0882 6.59536 29.844 6.52019 29.5943 6.52364H28.1035C27.908 6.52054 27.7152 6.56811 27.5444 6.66156C27.3737 6.75501 27.2312 6.89102 27.1313 7.05582C26.9774 7.29119 26.9195 7.57479 26.9693 7.85011L27.1556 9.13685C27.0322 9.06824 26.8924 9.03264 26.7505 9.03361H19.5317C19.2727 9.0352 19.0196 9.10962 18.8025 9.24805C18.5925 9.37691 18.4239 9.56141 18.3164 9.78022L17.7573 9.3116C17.5373 9.11201 17.2469 9.00383 16.9471 9.00977H5.62061C5.36068 9.01441 5.10654 9.0856 4.88335 9.21629C4.578 9.3915 4.35423 9.67639 4.25948 10.0106L0.662212 21.8058C0.594998 22.0001 0.588386 22.2097 0.643223 22.4078C0.69806 22.6058 0.811861 22.7834 0.97009 22.9178C1.01132 22.9521 1.05461 22.9839 1.09972 23.0131C1.09972 23.0131 1.0268 22.9654 0.986285 22.9257L5.89609 27.0799C6.10379 27.2673 6.37534 27.3721 6.65763 27.3737H18.0733C18.334 27.3671 18.5884 27.2931 18.8106 27.1593C18.9363 27.0919 19.0488 27.0032 19.1428 26.8971L19.1833 26.8415L19.2481 26.7621L19.2967 26.6748L19.8315 27.1275C20.0362 27.3075 20.3018 27.4066 20.5768 27.4055H32.0168C32.2772 27.397 32.5311 27.3232 32.7541 27.1911C32.8769 27.1196 32.9888 27.0313 33.0863 26.9289L33.1267 26.8733L33.1916 26.7939C33.226 26.7437 33.2559 26.6905 33.2807 26.635C33.3072 26.5869 33.3288 26.5364 33.3455 26.4842L36.6268 15.7136V15.6183C36.6308 15.5813 36.6308 15.544 36.6268 15.5071V15.4356C36.6307 15.4119 36.6307 15.3878 36.6268 15.3641C36.6305 15.3139 36.6305 15.2634 36.6268 15.2132H37.6801C37.7717 15.2214 37.8639 15.2214 37.9555 15.2132H38.0285C38.0877 15.1958 38.1449 15.1718 38.1986 15.1417H38.2796L38.4254 15.0305L38.4903 14.9828L38.6037 14.8398V14.7922L38.6847 14.6572C38.6802 14.6309 38.6802 14.604 38.6847 14.5778C38.6804 14.5649 38.6804 14.5509 38.6847 14.538C38.7019 14.4915 38.7155 14.4436 38.7252 14.395C38.7214 14.3794 38.7214 14.363 38.7252 14.3474C38.7213 14.3237 38.7213 14.2996 38.7252 14.2759C38.7252 14.2759 38.8873 13.9661 38.8873 13.9503Z" fill="black"/>
<path d="M17.2793 9.9153C17.3224 9.95343 17.3524 10.0036 17.3654 10.059C17.3785 10.1143 17.3739 10.1723 17.3523 10.2251L13.7631 22.0123C13.7179 22.141 13.6255 22.2486 13.5039 22.3142C13.4049 22.3791 13.2904 22.4174 13.1716 22.4254H1.76412C1.66669 22.4208 1.5744 22.3812 1.50485 22.3142C1.46348 22.2766 1.43444 22.2279 1.42145 22.1742C1.40846 22.1204 1.41212 22.0641 1.43193 22.0123L5.0292 10.2251C5.07065 10.0948 5.16021 9.98428 5.28036 9.9153C5.38095 9.85506 5.49493 9.81963 5.61254 9.81203H17.0201C17.1167 9.81295 17.2094 9.84987 17.2793 9.9153ZM11.3244 19.6374L13.4714 12.6H7.45981L5.32086 19.6374H11.3244ZM28.1684 10.0344C28.2073 10.0788 28.256 10.1139 28.3107 10.1373C28.3654 10.1607 28.4247 10.1717 28.4844 10.1695H29.967C30.0235 10.17 30.0791 10.1564 30.1288 10.13C30.1784 10.1036 30.2203 10.0652 30.2506 10.0185C30.2769 9.98207 30.2955 9.94077 30.3053 9.8971C30.315 9.85344 30.3157 9.80831 30.3073 9.76438L30.0156 7.66745C29.9879 7.5704 29.938 7.48079 29.8698 7.40534C29.8309 7.36099 29.7823 7.32583 29.7275 7.30245C29.6728 7.27907 29.6134 7.26809 29.5538 7.27031H28.0712C28.0147 7.26977 27.959 7.28334 27.9094 7.30975C27.8598 7.33615 27.8179 7.37452 27.7876 7.42123C27.7309 7.53243 27.7066 7.60391 27.7309 7.66745L28.0307 9.76438C28.046 9.86648 28.0943 9.9611 28.1684 10.0344ZM32.8756 7.65157C32.8478 7.55451 32.798 7.4649 32.7298 7.38945C32.6925 7.34527 32.6453 7.31011 32.5919 7.2867C32.5385 7.26328 32.4804 7.25223 32.4219 7.25442H30.9311C30.8756 7.25287 30.8207 7.26608 30.7722 7.29265C30.7237 7.31921 30.6835 7.35816 30.6557 7.40534C30.6018 7.4758 30.5785 7.56432 30.5909 7.65157L30.8906 9.74849C30.9094 9.84952 30.9572 9.94319 31.0284 10.0185C31.068 10.062 31.1168 10.0966 31.1713 10.1199C31.2259 10.1432 31.2848 10.1547 31.3443 10.1536H32.8351C32.8905 10.1543 32.9451 10.1407 32.9934 10.1142C33.0418 10.0878 33.0822 10.0493 33.1106 10.0027C33.1388 9.96713 33.1585 9.92585 33.1683 9.88187C33.1781 9.83789 33.1778 9.79232 33.1673 9.74849L32.8756 7.65157ZM26.864 10.8287L26.7181 9.79615H19.5317C19.4189 9.80225 19.3097 9.83791 19.2157 9.8994C19.156 9.93131 19.1041 9.97552 19.0635 10.029C19.023 10.0825 18.9948 10.144 18.9808 10.2092L18.3812 12.179C18.3573 12.2282 18.3491 12.2835 18.3578 12.3373C18.3665 12.3912 18.3916 12.4412 18.4298 12.4809C18.4981 12.5438 18.5873 12.5805 18.681 12.5841H27.4149L25.2679 19.6215H16.5583C16.446 19.624 16.3366 19.657 16.2423 19.7168C16.1277 19.7882 16.0441 19.8985 16.0074 20.0266L15.3997 21.9965C15.3799 22.047 15.3747 22.1019 15.3847 22.1552C15.3947 22.2085 15.4195 22.2579 15.4564 22.2983C15.5226 22.3654 15.6125 22.4052 15.7076 22.4094H27.1475C27.2658 22.3995 27.3799 22.3613 27.4797 22.2983C27.5993 22.2324 27.6891 22.1246 27.7309 21.9965L31.0203 11.2259H27.3177C27.2589 11.227 27.2006 11.2163 27.1463 11.1945C27.0919 11.1726 27.0427 11.14 27.0017 11.0988C26.9347 11.0267 26.8874 10.9393 26.864 10.8446V10.8287Z" fill="white"/>
</g>
<defs>
<clipPath id="clip0_211_2080">
<rect width="38.2838" height="20.8821" fill="white" transform="translate(0.606445 6.52344)"/>
</clipPath>
</defs>
</svg>
